<svg xmlns="http://www.w3.org/2000/svg" width="900" height="64" viewBox="0 0 900 64" role="img" aria-label="Featured project"><rect width="900" height="64" rx="14" fill="#1c1a19"/><rect x="0.5" y="0.5" width="899" height="63" rx="13.5" fill="none" stroke="#D97757" stroke-opacity="0.35"/>
<defs><linearGradient id="ln" x1="0" y1="0" x2="1" y2="0"><stop offset="0" stop-color="#D97757" stop-opacity="0.9"/><stop offset="1" stop-color="#D97757" stop-opacity="0"/></linearGradient></defs>
<style>.s{transform-box:fill-box;transform-origin:center;animation:sp 12s linear infinite}@keyframes sp{to{transform:rotate(360deg)}}
.t{animation:in .7s ease-out both}@keyframes in{from{opacity:0;transform:translateX(-10px)}}</style>
<g transform="translate(30 32) scale(0.42)"><g class="s" stroke="#D97757" stroke-width="10" stroke-linecap="round"><line x1="0" y1="-38" x2="0" y2="-10" transform="rotate(0)"/><line x1="0" y1="-38" x2="0" y2="-10" transform="rotate(45)"/><line x1="0" y1="-38" x2="0" y2="-10" transform="rotate(90)"/><line x1="0" y1="-38" x2="0" y2="-10" transform="rotate(135)"/><line x1="0" y1="-38" x2="0" y2="-10" transform="rotate(180)"/><line x1="0" y1="-38" x2="0" y2="-10" transform="rotate(225)"/><line x1="0" y1="-38" x2="0" y2="-10" transform="rotate(270)"/><line x1="0" y1="-38" x2="0" y2="-10" transform="rotate(315)"/></g></g>
<text class="t" x="58" y="42" font-family="'Segoe UI',-apple-system,Helvetica,Arial,sans-serif" font-size="28" font-weight="700" fill="#faf9f5">Featured project</text>
<rect x="343" y="31" width="537" height="2.5" rx="1.25" fill="url(#ln)"/>
</svg>
